<svg xmlns="http://www.w3.org/2000/svg" viewBox="0 0 70.68 83.51"><defs><style>.cls-1{fill:#050505;}</style></defs><title>Asset 15</title><g id="Layer_2" data-name="Layer 2"><g id="Layer_1-2" data-name="Layer 1"><path class="cls-1" d="M63.73,24.6a4.29,4.29,0,0,0,4.9-1.24,4.33,4.33,0,0,0-.51-6.11l-3.37-2.84a4.34,4.34,0,0,0-7.12,3.69A4.39,4.39,0,0,0,58.24,20l-.9,1.07a34.88,34.88,0,0,0-16.86-7.19V11.38a5.32,5.32,0,0,0,3.1-4.84V5.33A5.33,5.33,0,0,0,38.25,0h-5a5.33,5.33,0,0,0-5.33,5.33V6.54a5.33,5.33,0,0,0,3,4.8v2.52a34.9,34.9,0,0,0-17.88,8L11.41,20A4.32,4.32,0,0,0,11,14.93a4.35,4.35,0,0,0-6.12-.52L1.54,17.25a4.34,4.34,0,0,0,2.8,7.66,4.29,4.29,0,0,0,1.59-.31L8,27.11A35,35,0,1,0,62.5,26.06Zm-28,55.71A31.77,31.77,0,0,1,10.17,29.59c.24-.32.49-.64.74-.95a32.82,32.82,0,0,1,3.32-3.55c.28-.26.57-.51.86-.76A31.75,31.75,0,0,1,30.9,17.09l1.15-.15,1.14-.11c.83-.06,1.66-.1,2.5-.1s1.67,0,2.5.1l1.14.11,1.15.15A31.69,31.69,0,0,1,55.27,23.5c.3.23.6.48.89.72L57,25c.65.59,1.26,1.2,1.86,1.83.26.28.52.57.77.86s.51.59.75.89A31.77,31.77,0,0,1,35.69,80.31ZM4.34,22.62A2.05,2.05,0,0,1,3,19l3.36-2.84a2.06,2.06,0,0,1,1.32-.48,2,2,0,0,1,1.57.73,2.08,2.08,0,0,1,.48,1.49,2.12,2.12,0,0,1-.28.87A2,2,0,0,1,9,19.3L5.66,22.14a2.19,2.19,0,0,1-.59.35A2.24,2.24,0,0,1,4.34,22.62Zm5.47-1,1.52,1.8c-.62.61-1.23,1.24-1.81,1.89l-1.69-2ZM30.17,5.33a3,3,0,0,1,3-3h5a3,3,0,0,1,3,3V6.54a3,3,0,0,1-3,3h-5a3,3,0,0,1-3-3Zm3,6.54h5v1.75c-.83-.06-1.66-.09-2.5-.09s-1.67,0-2.5.09Zm25.9,10.66.75-.9,2,1.68-.87,1C60.36,23.71,59.73,23.11,59.09,22.53Zm7.8-.64a2.09,2.09,0,0,1-1.58.73,2.18,2.18,0,0,1-.72-.13,2.25,2.25,0,0,1-.6-.35L60.63,19.3a2.11,2.11,0,0,1-.72-1.4,2,2,0,0,1,.47-1.49,2.07,2.07,0,0,1,2.9-.25L66.64,19A2,2,0,0,1,66.89,21.89Z"/><path class="cls-1" d="M39,21.28A27.44,27.44,0,1,0,63.13,48.52,27.59,27.59,0,0,0,39,21.28Zm-3.3,51.47A24.23,24.23,0,1,1,59.92,48.52,24.26,24.26,0,0,1,35.69,72.75Z"/><path class="cls-1" d="M35.69,33.13a1.6,1.6,0,0,0,1.6-1.6v-5.1a1.6,1.6,0,0,0-3.2,0v5.1A1.6,1.6,0,0,0,35.69,33.13Z"/><path class="cls-1" d="M35.69,63.91a1.6,1.6,0,0,0-1.6,1.6v5.1a1.6,1.6,0,1,0,3.2,0v-5.1A1.6,1.6,0,0,0,35.69,63.91Z"/><path class="cls-1" d="M26,28.59a1.6,1.6,0,1,0-2.77,1.6l2.55,4.41a1.58,1.58,0,0,0,1.39.81,1.52,1.52,0,0,0,.79-.22A1.6,1.6,0,0,0,28.58,33Z"/><path class="cls-1" d="M45.57,62.43A1.6,1.6,0,0,0,42.8,64l2.55,4.41a1.6,1.6,0,1,0,2.77-1.6Z"/><path class="cls-1" d="M21.78,38.64l-4.42-2.55a1.6,1.6,0,1,0-1.6,2.77l4.41,2.55a1.6,1.6,0,0,0,1.61-2.77Z"/><path class="cls-1" d="M55.62,58.18l-4.41-2.55A1.6,1.6,0,0,0,49.6,58.4L54,61a1.56,1.56,0,0,0,.8.22,1.62,1.62,0,0,0,1.39-.8A1.6,1.6,0,0,0,55.62,58.18Z"/><path class="cls-1" d="M20.3,48.52a1.6,1.6,0,0,0-1.6-1.6H13.6a1.6,1.6,0,0,0,0,3.2h5.1A1.6,1.6,0,0,0,20.3,48.52Z"/><path class="cls-1" d="M57.78,46.92h-5.1a1.6,1.6,0,0,0,0,3.2h5.1a1.6,1.6,0,1,0,0-3.2Z"/><path class="cls-1" d="M20.17,55.63l-4.41,2.55a1.6,1.6,0,0,0-.59,2.19,1.62,1.62,0,0,0,1.39.8,1.56,1.56,0,0,0,.8-.22l4.42-2.55a1.6,1.6,0,0,0-1.61-2.77Z"/><path class="cls-1" d="M49,40.82a1.59,1.59,0,0,0,2.19.59l4.41-2.55A1.6,1.6,0,1,0,54,36.09L49.6,38.64A1.6,1.6,0,0,0,49,40.82Z"/><path class="cls-1" d="M28,61.85a1.6,1.6,0,0,0-2.18.58l-2.55,4.42A1.6,1.6,0,0,0,23.84,69,1.61,1.61,0,0,0,26,68.45L28.58,64A1.6,1.6,0,0,0,28,61.85Z"/><path class="cls-1" d="M43.39,35.19a1.52,1.52,0,0,0,.79.22,1.58,1.58,0,0,0,1.39-.81l2.55-4.41a1.6,1.6,0,1,0-2.77-1.6L42.8,33A1.6,1.6,0,0,0,43.39,35.19Z"/><path class="cls-1" d="M50.84,34.47a1.14,1.14,0,0,0-1.47-.18L35.44,43.41A5.11,5.11,0,1,0,40.78,49l10.12-13A1.12,1.12,0,0,0,50.84,34.47Zm-15.15,16a1.91,1.91,0,1,1,1.91-1.91A1.92,1.92,0,0,1,35.69,50.43ZM40.15,46a5.06,5.06,0,0,0-1.73-1.83L44.87,40Z"/></g></g></svg>