<svg xmlns="http://www.w3.org/2000/svg" viewBox="0 0 71.07 83.36"><defs><style>.cls-1{fill:#050505;}</style></defs><title>Asset 16</title><g id="Layer_2" data-name="Layer 2"><g id="Layer_1-2" data-name="Layer 1"><path class="cls-1" d="M23.18,41.91a2.45,2.45,0,1,0-2.41-2.44A2.43,2.43,0,0,0,23.18,41.91Z"/><path class="cls-1" d="M69.47,74.5H66.26V70.44a1.6,1.6,0,0,0-1.6-1.6H60.84V1.6A1.6,1.6,0,0,0,59.24,0H11.83a1.61,1.61,0,0,0-1.61,1.6V68.84H6.41a1.6,1.6,0,0,0-1.6,1.6V74.5H1.6A1.6,1.6,0,0,0,0,76.1v5.66a1.6,1.6,0,0,0,1.6,1.6H69.47a1.6,1.6,0,0,0,1.6-1.6V76.1A1.6,1.6,0,0,0,69.47,74.5Zm-1.61,5.66H3.2V77.7H67.86ZM8,72H63.06V74.5H8ZM13.43,3.2H57.64V68.84H55.15V8.32a1.6,1.6,0,0,0-1.6-1.6h-36a1.6,1.6,0,0,0-1.6,1.6V68.84H13.43Zm30,66h-15V58.91h5.23v5.9l1.15-.74,1.24.74,1.28-.74,1.12.74v-5.9h5V69.23ZM35.24,52.7l1,.57,1-.57.86.57V49h3.57v7.38h-11V49h3.75v4.26ZM52,68.84H45.69V57.77a1.14,1.14,0,0,0-1.14-1.15H43.9V47.87a1.15,1.15,0,0,0-1.15-1.15H29.47a1.15,1.15,0,0,0-1.14,1.15v8.75h-1.1a1.14,1.14,0,0,0-1.14,1.15V68.84h-7V9.92H52Z"/></g></g></svg>