<svg xmlns="http://www.w3.org/2000/svg" viewBox="0 0 73.53 63.72"><defs><style>.cls-1{fill:#050505;}</style></defs><title>Asset 12</title><g id="Layer_2" data-name="Layer 2"><g id="Layer_1-2" data-name="Layer 1"><path class="cls-1" d="M50.14,47.32,44.9,52.79,43.29,50.6a1.6,1.6,0,0,0-2.58,1.9l2.74,3.72a1.6,1.6,0,0,0,1.19.65h.1a1.61,1.61,0,0,0,1.16-.49l6.55-6.85a1.6,1.6,0,1,0-2.31-2.21Z"/><path class="cls-1" d="M30.52,28.46l-5.24,5.48-1.62-2.19a1.6,1.6,0,1,0-2.57,1.9l2.74,3.72A1.59,1.59,0,0,0,25,38h.11a1.57,1.57,0,0,0,1.15-.49l6.56-6.85a1.6,1.6,0,1,0-2.31-2.22Z"/><path class="cls-1" d="M67.88,8.82H62.79V4c0-2.2-2.11-4-4.7-4s-4.7,1.79-4.7,4V8.82H41.46V4c0-2.2-2.1-4-4.7-4s-4.7,1.79-4.7,4V8.82H20.14V4c0-2.2-2.11-4-4.7-4s-4.7,1.79-4.7,4V8.82H5.64A5.65,5.65,0,0,0,0,14.47v43.6a5.65,5.65,0,0,0,5.64,5.65H67.88a5.66,5.66,0,0,0,5.65-5.65V14.47A5.66,5.66,0,0,0,67.88,8.82ZM3.2,25.67H17.33V41.31H3.2Zm16.42,0h16V41.31h-16Zm18.31,0H54V41.31h-16Zm18.31,0H70.32V41.31H56.24Zm.35-16.85V4c0-.31.6-.79,1.5-.79s1.5.48,1.5.79v11.4c0,.31-.6.79-1.5.79s-1.5-.48-1.5-.79V8.82Zm-21.32,0V4c0-.31.59-.79,1.49-.79s1.5.48,1.5.79v11.4c0,.31-.6.79-1.5.79s-1.49-.48-1.49-.79V8.82Zm-21.33,0V4c0-.31.6-.79,1.5-.79s1.49.48,1.49.79v11.4c0,.31-.59.79-1.49.79s-1.5-.48-1.5-.79V8.82ZM3.2,14.47A2.44,2.44,0,0,1,5.64,12h5.1v3.36c0,2.2,2.1,4,4.7,4s4.7-1.79,4.7-4V12H32.06v3.36c0,2.2,2.11,4,4.7,4s4.7-1.79,4.7-4V12H53.39v3.36c0,2.2,2.11,4,4.7,4s4.7-1.79,4.7-4V12h5.09a2.44,2.44,0,0,1,2.44,2.44v8H3.2Zm0,43.6V43.6H17.33V60.51H5.64A2.44,2.44,0,0,1,3.2,58.07ZM19.62,43.6h16V60.51h-16Zm18.31,0H54V60.51h-16ZM70.32,58.07a2.44,2.44,0,0,1-2.44,2.44H56.24V43.6H70.32Z"/></g></g></svg>