<svg xmlns="http://www.w3.org/2000/svg" viewBox="0 0 100.45 68.95"><defs><style>.cls-1{fill:#050505;}</style></defs><title>Asset 7</title><g id="Layer_2" data-name="Layer 2"><g id="Layer_1-2" data-name="Layer 1"><path class="cls-1" d="M25.46,47.86A10.55,10.55,0,1,0,36,58.4,10.55,10.55,0,0,0,25.46,47.86Zm0,17.88A7.34,7.34,0,1,1,32.8,58.4,7.34,7.34,0,0,1,25.46,65.74Z"/><path class="cls-1" d="M25.46,54a4.41,4.41,0,1,0,4.4,4.4A4.41,4.41,0,0,0,25.46,54Z"/><path class="cls-1" d="M79.36,47.86A10.55,10.55,0,1,0,89.9,58.4,10.56,10.56,0,0,0,79.36,47.86Zm0,17.88A7.34,7.34,0,1,1,86.7,58.4,7.34,7.34,0,0,1,79.36,65.74Z"/><path class="cls-1" d="M79.36,54a4.41,4.41,0,1,0,4.4,4.4A4.4,4.4,0,0,0,79.36,54Z"/><path class="cls-1" d="M99.47,26.82l-8.84-3.7c-1.13-2-5.41-9.44-8.78-12.36a1.56,1.56,0,0,0-1-.4H67.69V1.6A1.6,1.6,0,0,0,66.09,0H1.6A1.6,1.6,0,0,0,0,1.6V40.71a1.6,1.6,0,0,0,1.6,1.6H4.38V54A1.6,1.6,0,0,0,6,55.6h7.07a1.6,1.6,0,0,0,1.5-1.06,11.57,11.57,0,0,1,21.81,0,1.62,1.62,0,0,0,1.51,1.06H66.94a1.61,1.61,0,0,0,1.51-1.06,11.57,11.57,0,0,1,21.81,0,1.61,1.61,0,0,0,1.51,1.06h7.08a1.6,1.6,0,0,0,1.6-1.6V28.3A1.61,1.61,0,0,0,99.47,26.82ZM67.72,13.57H80.18c3.36,3.27,7.86,11.49,7.91,11.58a1.59,1.59,0,0,0,.79.7l8.37,3.51v9.93H67.72ZM3.2,7.88H7.25V34.56h-4Zm6.11,0h4.3V34.56H9.31Zm6.36,0H20V34.56H15.67Zm6.37,0h4.3V34.56H22Zm6.36,0h4.3V34.56H28.4Zm6.36,0h4.31V34.56H34.76Zm6.37,0h4.3V34.56h-4.3Zm6.36,0H51.8V34.56H47.49Zm6.36,0h4.31V34.56H53.85Zm6.37,0h4.27V34.56H60.22ZM3.2,3.2H64.49V5.59H3.2Zm0,35.91V36.85H64.49v2.26ZM97.25,52.4h-4.4a14.77,14.77,0,0,0-27,0H39a14.78,14.78,0,0,0-27,0H7.59V42.49H97.25Z"/><path class="cls-1" d="M78.1,16.33H69.67v10H85.24l-.09-.14A69.08,69.08,0,0,0,78.1,16.33Z"/><rect class="cls-1" x="71.93" y="30.13" width="5.07" height="1.84"/></g></g></svg>