<svg xmlns="http://www.w3.org/2000/svg" viewBox="0 0 69.99 70.63"><defs><style>.cls-1{fill:#050505;}.cls-2{fill:none;stroke:#231f20;stroke-miterlimit:10;}</style></defs><title>Asset 17</title><g id="Layer_2" data-name="Layer 2"><g id="Layer_1-2" data-name="Layer 1"><path class="cls-1" d="M35.11,48.08a1.59,1.59,0,0,0-2-.58s-4.17,2-6.9,3.13l-.09,0a.83.83,0,0,1-.22,0c-1.14,0-2.89-1.74-3.78-3L14.3,30.58c-.4-1.74-.48-4.35.42-5l.08-.05c.51-.26,1.08-.53,1.66-.81h0a1.88,1.88,0,0,0,.45-.22c2.31-1.07,4.73-2.08,4.76-2.1a1.59,1.59,0,0,0,.92-1.92L17,1.16a1.59,1.59,0,0,0-.87-1,1.59,1.59,0,0,0-1.33,0L9.63,2.49h0l-.22.13h0a1.2,1.2,0,0,0-.21.17h0l-8,8a1.67,1.67,0,0,0-.41.69c-.15.52-3.59,13,5.53,33.09,10,21.95,20.93,25.82,21.39,26a1.69,1.69,0,0,0,.5.08h.11l11.27-.76a1.84,1.84,0,0,0,.56-.14l.12-.06a1.53,1.53,0,0,0,.6-.23.58.58,0,0,0,.15-.11l4.3-2a1.58,1.58,0,0,0,.87-1A1.61,1.61,0,0,0,46,65.06ZM14.44,3.82l4.71,16.23c-.59.25-1.33.57-2.12.93L12.23,4.83Zm14,63.59a22.54,22.54,0,0,1-5.93-4.23c-6.13-5.74-10.61-14-13.3-19.93-4.49-9.92-5.71-17.79-6-22.65a30.77,30.77,0,0,1,.49-7.86L9.53,7,14.1,22.34l-.76.38c-.14.07-.28.16-.41.24-1,.68-2.19,2.16-2.11,5.37a16.42,16.42,0,0,0,.41,3.16,2.15,2.15,0,0,0,.1.27l7.88,17.4a2,2,0,0,0,.14.25c.32.46,3.18,4.48,6.5,4.48a4.06,4.06,0,0,0,1-.13,3.43,3.43,0,0,0,.45-.16l1.07-.43,8.83,13.64ZM40.54,66,31.37,51.85,33.18,51l9.1,14.23Z"/><path class="cls-1" d="M36.86,16a20,20,0,0,0,1.43-2.45,11.68,11.68,0,0,0,.85-2.35,10.47,10.47,0,0,0,.28-2.48,6.27,6.27,0,0,0-1.55-4.51,5.72,5.72,0,0,0-4.32-1.63,6.78,6.78,0,0,0-3,.69,10.45,10.45,0,0,0-3.05,2.55l2.37,2.49a8.63,8.63,0,0,1,1.75-1.57,3,3,0,0,1,1.55-.44,1.94,1.94,0,0,1,1.52.66,2.85,2.85,0,0,1,.59,2,7.91,7.91,0,0,1-.3,2.18,10.55,10.55,0,0,1-.92,2.2,39.78,39.78,0,0,1-2.3,3.52l-4.06,5.75v3.17H39.9V21.93H32.43V21.8C34.81,18.77,36.29,16.82,36.86,16Z"/><path class="cls-1" d="M48.79,2.88l-6.9,14.58v3.45h7.44v4.8h4v-4.8h2.31V17.4H53.33V2.88Zm.62,7.59-.08,2.12V17.4H45.46l2.75-5.88A27.59,27.59,0,0,0,49.4,8.44h.12Z"/><polygon class="cls-1" points="32.46 36.21 32.46 28.47 31.02 28.47 31.02 31.55 29.12 31.55 29.12 28.47 27.68 28.47 27.68 36.21 29.12 36.21 29.12 32.81 31.02 32.81 31.02 36.21 32.46 36.21"/><path class="cls-1" d="M36.38,28.35a2.38,2.38,0,0,0-2.07,1,5.1,5.1,0,0,0-.72,2.95,5.17,5.17,0,0,0,.72,3,2.58,2.58,0,0,0,4.12,0,5.12,5.12,0,0,0,.72-3,5.1,5.1,0,0,0-.72-2.95A2.33,2.33,0,0,0,36.38,28.35Zm0,6.69a1.05,1.05,0,0,1-1-.69,4.9,4.9,0,0,1-.33-2,4.83,4.83,0,0,1,.33-2,1.06,1.06,0,0,1,1-.69c.86,0,1.29.9,1.29,2.71S37.24,35,36.37,35Z"/><path class="cls-1" d="M40.25,28.47v5a3.26,3.26,0,0,0,.6,2.13,2.16,2.16,0,0,0,1.76.72,2.26,2.26,0,0,0,1.8-.72A3.15,3.15,0,0,0,45,33.48v-5H43.61v5.12a2,2,0,0,1-.25,1.07.81.81,0,0,1-.71.38c-.65,0-1-.49-1-1.48V28.47Z"/><path class="cls-1" d="M51.09,36.21,49.6,32.82a2.19,2.19,0,0,0,1-2.05A2.33,2.33,0,0,0,50,29a2.41,2.41,0,0,0-1.77-.57H46.37v7.74h1.44v-3h.51l1.23,3Zm-2.18-4.54a.87.87,0,0,1-.73.29h-.37V29.71h.36a1,1,0,0,1,.73.25,1.22,1.22,0,0,1,.23.85A1.38,1.38,0,0,1,48.91,31.67Z"/><path class="cls-1" d="M53.06,35.06a3,3,0,0,1-1.59-.57v1.43a3.5,3.5,0,0,0,1.72.39,2.09,2.09,0,0,0,1.58-.57,2.36,2.36,0,0,0,.55-1.66,2.39,2.39,0,0,0-.3-1.21,3.28,3.28,0,0,0-1.06-1,3.55,3.55,0,0,1-.78-.66,1.09,1.09,0,0,1-.23-.68.93.93,0,0,1,.19-.63.65.65,0,0,1,.54-.23,1.63,1.63,0,0,1,.59.11,4.39,4.39,0,0,1,.53.27l.48-1.15a3.2,3.2,0,0,0-1.71-.5,2,2,0,0,0-1.49.58,2.23,2.23,0,0,0-.55,1.58,2.81,2.81,0,0,0,.14.91,2.6,2.6,0,0,0,.4.71,3.64,3.64,0,0,0,.75.65,3.64,3.64,0,0,1,.82.72,1.09,1.09,0,0,1,.25.7.88.88,0,0,1-.21.62A.8.8,0,0,1,53.06,35.06Z"/><path class="cls-2" d="M69.49,35.22a27.9,27.9,0,0,0-10.61-22,1.6,1.6,0,1,0-2,2.53,24.68,24.68,0,0,1,9.35,19.52,24.27,24.27,0,0,1-12,21.26l2.76-5.86a1.6,1.6,0,1,0-2.9-1.36l-4.53,9.61a1.6,1.6,0,0,0,1.14,2.25l11.12,2.2a1.63,1.63,0,0,0,.31,0,1.61,1.61,0,0,0,.31-3.18L56.38,59A27.51,27.51,0,0,0,69.49,35.22Z"/></g></g></svg>