<svg xmlns="http://www.w3.org/2000/svg" viewBox="0 0 94.9 88.85"><defs><style>.cls-1{fill:#050505;}</style></defs><title>Asset 8</title><g id="Layer_2" data-name="Layer 2"><g id="Layer_1-2" data-name="Layer 1"><path class="cls-1" d="M87.44,38.81a51.43,51.43,0,0,0-6.53-1.38l-.21,0H70.8l-3.27-5.2H71.4a1.6,1.6,0,0,0,1.6-1.6V25.85a1.59,1.59,0,0,0-1.6-1.6H66.64a1.51,1.51,0,0,0-.59.11,10.69,10.69,0,0,0-2.6,1.39L58.3,17.58h3.54a1.59,1.59,0,0,0,1.6-1.6V11.42a1.59,1.59,0,0,0-1.6-1.6H57.28a1.51,1.51,0,0,0-.59.11,10.9,10.9,0,0,0-2.41,1.27L49.9,4.25a1.64,1.64,0,0,0-.76-.64L40.42.12a1.59,1.59,0,0,0-2.13,1.93L48.73,37.41h-29a1.73,1.73,0,0,0-.32,0c-.1,0-1.85.38-4,1L9.08,26.16a1.58,1.58,0,0,0-1.42-.87H1.6a1.6,1.6,0,0,0-1.26.61A1.62,1.62,0,0,0,0,27.26L3.83,42.93H1.73a1.6,1.6,0,1,0,0,3.2H3.79L0,61.62A1.63,1.63,0,0,0,.34,63a1.6,1.6,0,0,0,1.26.61H7.66a1.58,1.58,0,0,0,1.42-.87l6.2-12.08c2.27.54,4.12.83,4.22.84a1,1,0,0,0,.24,0h29L38.29,86.79a1.6,1.6,0,0,0,1.53,2.06,1.57,1.57,0,0,0,.6-.12l8.72-3.49a1.64,1.64,0,0,0,.76-.64l4.38-6.95a10.9,10.9,0,0,0,2.41,1.27,1.51,1.51,0,0,0,.59.11h4.56a1.59,1.59,0,0,0,1.6-1.6V72.87a1.59,1.59,0,0,0-1.6-1.6H58.3l5.15-8.17a10.69,10.69,0,0,0,2.6,1.39,1.51,1.51,0,0,0,.59.11H71.4A1.59,1.59,0,0,0,73,63V58.24a1.6,1.6,0,0,0-1.6-1.6H67.53l3.23-5.13H80.7a.86.86,0,0,0,.23,0,56.09,56.09,0,0,0,6.51-1.43c5.09-1.47,7.46-3.24,7.46-5.55C94.9,41.32,90.64,39.73,87.44,38.81ZM86.2,47.08a54.4,54.4,0,0,1-5.63,1.23H19.86c-1.09-.17-2.13-.37-3.09-.58l.82-1.6h1.85a1.6,1.6,0,0,0,0-3.2H17.68l-.8-1.57c1.44-.4,2.62-.66,3-.75H80.58a52.71,52.71,0,0,1,6,1.28c4.17,1.19,5.1,2.32,5.15,2.6C91.63,44.62,91,45.76,86.2,47.08Zm-26,27.39v1.36H57.6a9.87,9.87,0,0,1-1.22-.63,9.75,9.75,0,0,1,1.26-.73ZM48,81.6l17.5-30.09H67ZM62.87,51.51,44.07,83.82l-1.78.71,9.76-33ZM12.13,49.77,6.68,60.4h-3L6.9,46.89l.18-.76H14l-.4.76-.73,1.44ZM6.68,28.49l5.62,11L13,40.89l.73,1.44.31.6h-7L7,42.51l-3.38-14ZM47.46,6.39,67,37.41H65.46L47.4,6.36ZM60.24,13v1.36h-2.6a9.12,9.12,0,0,1-1.26-.73A9.87,9.87,0,0,1,57.6,13ZM43.94,5,62.81,37.41H52.07L42.29,4.32ZM69.8,27.45V29H67a10.66,10.66,0,0,1-1.42-.84A9.31,9.31,0,0,1,67,27.45ZM67,59.84h2.8V61.4H67a9.31,9.31,0,0,1-1.38-.72A10.66,10.66,0,0,1,67,59.84Z"/></g></g></svg>