<svg xmlns="http://www.w3.org/2000/svg" viewBox="0 0 75.56 79.2"><defs><style>.cls-1{fill:#050505;}</style></defs><title>Asset 5</title><g id="Layer_2" data-name="Layer 2"><g id="Layer_1-2" data-name="Layer 1"><path class="cls-1" d="M1.13,3.13,14,7.07l7.37,18.35A1.52,1.52,0,0,0,21,26l-3.6,11a1.55,1.55,0,0,0,0,1.1l10,24.59a12.66,12.66,0,1,0,24.32.55l22.86-9.75a1.6,1.6,0,0,0-1.26-2.94L50.52,60.35a13,13,0,0,0-1.65-2.3l21.45-8.88a1.14,1.14,0,0,0,.62-.62,1.1,1.1,0,0,0,0-.87L59.84,20.84a1.15,1.15,0,0,0-1.5-.62l-2.26.94-7.85-19a1.13,1.13,0,0,0-1.49-.62L26.34,10a1.14,1.14,0,0,0-.62.62,1.12,1.12,0,0,0,0,.88l7.84,19-2.62,1.09a1.14,1.14,0,0,0-.62,1.49L38.94,53.9a12.84,12.84,0,0,0-2.58.38L16.64,5.17a1.64,1.64,0,0,0-1-.94L2.07.07a1.6,1.6,0,0,0-.94,3.06ZM28.27,11.7l5.65-2.34,2.18,5.27,7-2.89L40.91,6.47l5.65-2.34L54,22,35.66,29.56ZM39.49,57.09c.27,0,.53,0,.79,0a9.31,9.31,0,0,1,2.74.66l.26.11a9.46,9.46,0,0,1,5.46,6.7,9.63,9.63,0,0,1,.2,2,9.45,9.45,0,1,1-14.35-8.08,9.53,9.53,0,0,1,4.9-1.37ZM32.87,33.24l8-3.29,3.08,7.44,9.39-3.88-3.08-7.44,7.95-3.29L68.39,47.49,47,56.35A12.68,12.68,0,0,0,41.48,54ZM29.34,59l-3.66-9,4.43-2.72,3.27,8.15A12.83,12.83,0,0,0,29.34,59ZM24.46,47l-3.89-9.51,2.51-7.69L28.9,44.29Z"/><path class="cls-1" d="M39.49,72a5.45,5.45,0,0,0,5.45-5.45c0-.11,0-.22,0-.32a5.38,5.38,0,0,0-1.12-3,5.46,5.46,0,0,0-4.31-2.11H39.1A5.45,5.45,0,0,0,39.49,72Z"/></g></g></svg>