<svg xmlns="http://www.w3.org/2000/svg" viewBox="0 0 68.09 67.98"><defs><style>.cls-1{fill:#050505;}</style></defs><title>Asset 2</title><g id="Layer_2" data-name="Layer 2"><g id="Layer_1-2" data-name="Layer 1"><path class="cls-1" d="M1.6,68H50.76l.08,0h.08l.07,0,.08,0,.07,0,.07,0,.07,0,.07,0,.07,0,.06,0,.06,0s.05,0,.07-.06a.08.08,0,0,0,0,0l16-15.68h0l.07-.08,0,0a.94.94,0,0,0,.09-.12l.06-.09,0,0a.59.59,0,0,1,0-.08l0-.06s0,0,0-.07l0-.08,0-.06a.29.29,0,0,1,0-.09.77.77,0,0,0,0-.15v0a.37.37,0,0,0,0-.11h0V1.6A1.6,1.6,0,0,0,66.49,0H17.25l-.07,0-.08,0L17,.09,17,.12l-.07,0-.07,0-.07,0-.07.05-.06,0-.06,0-.07.06,0,0L.48,16.14h0l-.07.08,0,0-.09.12-.06.09,0,.05a.3.3,0,0,1,0,.08l0,.06a.64.64,0,0,1,0,.07l0,.08s0,.05,0,.07A.24.24,0,0,1,0,17a.78.78,0,0,0,0,.16v0a.49.49,0,0,0,0,.12H0v49.1A1.6,1.6,0,0,0,1.6,68Zm47.33-3.2H3.2V18.88H18.39V43.6l4.22-2.93,3.24,2.93L29,40.55,34,43.6V18.88h15Zm3.2-46.84L64.89,5V50L52.13,62.56Zm-2.27-2.26h-14L48.12,3.2H62.19ZM18.21,3.2H32.4L19.73,15.68H5.52Z"/><path class="cls-1" d="M22,51.85H5.14a.58.58,0,0,0-.57.57v9.67a.58.58,0,0,0,.57.57H22a.58.58,0,0,0,.57-.57V52.42A.58.58,0,0,0,22,51.85Zm-.58,9.66H5.71V53h15.7Z"/><rect class="cls-1" x="6.67" y="54" width="0.9" height="6.59"/><rect class="cls-1" x="19.61" y="54" width="0.76" height="6.59"/><rect class="cls-1" x="8.21" y="54" width="0.9" height="6.59"/><rect class="cls-1" x="11.64" y="54" width="0.9" height="6.59"/><rect class="cls-1" x="14.82" y="54" width="0.76" height="6.59"/><rect class="cls-1" x="16.12" y="54" width="0.76" height="6.59"/><rect class="cls-1" x="13.13" y="54" width="1.26" height="6.59"/><rect class="cls-1" x="9.57" y="54" width="1.45" height="6.59"/><rect class="cls-1" x="17.51" y="54" width="1.45" height="6.59"/></g></g></svg>