<svg xmlns="http://www.w3.org/2000/svg" viewBox="0 0 67.68 81.37"><defs><style>.cls-1{fill:#050505;}</style></defs><title>Asset 10</title><g id="Layer_2" data-name="Layer 2"><g id="Layer_1-2" data-name="Layer 1"><path class="cls-1" d="M33.94,81.37A33.72,33.72,0,0,0,58.56,24.59c2.7-4.45,6-10.49,6-13.83a10.76,10.76,0,0,0-21.52,0,13.76,13.76,0,0,0,1.2,4.73A33.72,33.72,0,0,0,16.7,18.65,9,9,0,0,0,0,23.22c0,2.31,1.84,6.12,3.73,9.41A33.72,33.72,0,0,0,33.94,81.37ZM14.52,49.24A32.79,32.79,0,0,0,17,59.74a33.77,33.77,0,0,0-8.5,4.78A30.33,30.33,0,0,1,3.45,49.24ZM19.45,38a49.4,49.4,0,0,0,12.89,2.31V46H17.73A29,29,0,0,1,19.45,38Zm30.7,8H35.54V40.41a50.87,50.87,0,0,0,13.08-1.82A28.62,28.62,0,0,1,50.15,46ZM48.06,58.16a50.86,50.86,0,0,0-12.52-1.67V49.24H50.15A29.06,29.06,0,0,1,48.06,58.16ZM17.73,49.24H32.34v7.31A49.76,49.76,0,0,0,20,58.68,29.69,29.69,0,0,1,17.73,49.24ZM32.34,59.76v16a55.64,55.64,0,0,1-11-14.16A46.16,46.16,0,0,1,32.34,59.76Zm3.2,16V59.69a48.76,48.76,0,0,1,11.19,1.42A55.28,55.28,0,0,1,35.54,75.75Zm0-38.54V19.3a55.15,55.15,0,0,1,11.9,16.3A48.15,48.15,0,0,1,35.54,37.21Zm-3.2-17.9V37.14a46.08,46.08,0,0,1-11.66-2.06A55.67,55.67,0,0,1,32.34,19.31ZM10.42,67.08l0,0a31,31,0,0,1,7.88-4.41,51.12,51.12,0,0,0,5.42,8.45,64.36,64.36,0,0,0,6.19,6.81A30.52,30.52,0,0,1,10.42,67.08ZM37.94,77.91a64.36,64.36,0,0,0,6.19-6.81A50.36,50.36,0,0,0,49.85,62a33.18,33.18,0,0,1,8.35,4.12A30.5,30.5,0,0,1,37.94,77.91ZM60,63.51a36.55,36.55,0,0,0-8.89-4.42,32.53,32.53,0,0,0,2.23-9.85H64.43A30.41,30.41,0,0,1,60,63.51ZM53.36,46a31.75,31.75,0,0,0-1.7-8.41,35.32,35.32,0,0,0,9-4.71A30.15,30.15,0,0,1,64.43,46Zm8-35.27c0,2.23-2.46,7.09-5.12,11.54-.57.95-1.14,1.88-1.7,2.77l-.74,1.13c-.71-1.08-1.45-2.27-2.19-3.49-1.1-1.82-2.18-3.73-3.08-5.51-1.34-2.67-2.29-5.06-2.29-6.44a7.56,7.56,0,0,1,15.12,0ZM46.13,19.64A110.8,110.8,0,0,0,52.43,30a1.61,1.61,0,0,0,2.64,0c.23-.33.87-1.27,1.72-2.59A30.88,30.88,0,0,1,59,30.19a32.07,32.07,0,0,1-8.47,4.45,49.58,49.58,0,0,0-6.37-10.58,63.31,63.31,0,0,0-6-6.66A30.18,30.18,0,0,1,46.13,19.64ZM29.7,17.4a64.4,64.4,0,0,0-6,6.66A50.49,50.49,0,0,0,17.66,34a35.9,35.9,0,0,1-3.3-1.58c2.42-4.24,3.6-7.25,3.6-9.18a9.42,9.42,0,0,0-.13-1.51A30.26,30.26,0,0,1,29.7,17.4ZM9,17.45a5.78,5.78,0,0,1,5.78,5.77,3.38,3.38,0,0,1-.12.77,29.57,29.57,0,0,1-3,6.74c-.48.85-1,1.78-1.63,2.76L9,35.11c-.58-.89-1.11-1.73-1.59-2.53-.7-1.16-1.3-2.23-1.81-3.2C3.9,26.19,3.2,24.06,3.2,23.22A5.78,5.78,0,0,1,9,17.45ZM5.73,36c.95,1.51,1.7,2.61,1.93,2.94a1.61,1.61,0,0,0,2.64,0c0-.08,1.11-1.62,2.42-3.74a38,38,0,0,0,3.74,1.79A32.2,32.2,0,0,0,14.52,46H3.45A30.32,30.32,0,0,1,5.73,36Z"/><path class="cls-1" d="M7.51,26.7a4.22,4.22,0,0,0,5.71-4A4.31,4.31,0,0,0,13,21.24,4.24,4.24,0,1,0,7.51,26.7ZM9,20.77a2,2,0,0,1,1.95,1.95,2.83,2.83,0,0,1,0,.29,1.94,1.94,0,0,1-1.65,1.64,1.27,1.27,0,0,1-.28,0,2,2,0,0,1,0-3.91Z"/><path class="cls-1" d="M53.75,15.13a5,5,0,1,0-5-5A5,5,0,0,0,53.75,15.13Zm0-7.69a2.7,2.7,0,1,1-2.7,2.7A2.7,2.7,0,0,1,53.75,7.44Z"/></g></g></svg>