<svg xmlns="http://www.w3.org/2000/svg" viewBox="0 0 82.32 80.63"><defs><style>.cls-1{fill:#050505;}</style></defs><title>Asset 14</title><g id="Layer_2" data-name="Layer 2"><g id="Layer_1-2" data-name="Layer 1"><path class="cls-1" d="M80.72,33.66H70.54a1.36,1.36,0,0,0-.39-.27L46.43,22a6.22,6.22,0,0,0,.47-2.37,6.3,6.3,0,0,0-4.69-6.08V10.57l5.88-8A1.6,1.6,0,0,0,46.8,0H34.42A1.59,1.59,0,0,0,33,.88a1.6,1.6,0,0,0,.13,1.67l5.88,8v4c0,.07,0,.14,0,.2v.11a1.6,1.6,0,0,0,1.6,1.6,3.08,3.08,0,0,1,0,6.16,3,3,0,0,1-1.72-.53h0L38.7,22a1.56,1.56,0,0,0-.35-.33,2.83,2.83,0,0,1-.39-.52A1.6,1.6,0,0,0,35,22.38l-22.86,11a1.56,1.56,0,0,0-.4.27H1.6A1.6,1.6,0,0,0,0,35.26v4.49a1.6,1.6,0,0,0,1.6,1.6H3.46V72.94H1.6A1.6,1.6,0,0,0,0,74.54V79a1.6,1.6,0,0,0,1.6,1.6H80.72a1.6,1.6,0,0,0,1.6-1.6V74.54a1.6,1.6,0,0,0-1.6-1.6H78.86V41.35h1.86a1.6,1.6,0,0,0,1.6-1.6V35.26A1.6,1.6,0,0,0,80.72,33.66ZM37.58,3.2h6.06l-3,4.14ZM79.11,77.43H3.2V76.14H79.11ZM6.66,41.35h3.71V72.92H6.66ZM68.23,72.92H63.68V41.35h4.55ZM14.09,41.35h4.55V72.92H14.09ZM60,72.92H55.41V41.35H60Zm-8.26,0H47.15V41.35H51.7Zm-8.27,0H38.89V41.35h4.54Zm-8.26,0H30.62V41.35h4.55Zm-8.27,0H22.36V41.35H26.9Zm48.75,0H71.94V41.35h3.71Zm3.46-34.77H3.2V36.86H79.11ZM37.22,24.88a6.31,6.31,0,0,0,3.4,1,6.24,6.24,0,0,0,3.83-1.31l18.88,9.09H19Z"/></g></g></svg>