<svg xmlns="http://www.w3.org/2000/svg" viewBox="0 0 77.87 82.28"><defs><style>.cls-1{fill:#050505;}</style></defs><title>Asset 4</title><g id="Layer_2" data-name="Layer 2"><g id="Layer_1-2" data-name="Layer 1"><path class="cls-1" d="M1.6,68H50.76l.08,0h.08l.07,0,.08,0,.07,0,.07,0,.07,0,.07,0,.07,0,.06,0,.06,0,.08-.07,0,0,9.13-9,1.81,4.61-.15.06a1.14,1.14,0,0,0-.69,1.36,3.81,3.81,0,0,0,.15.44l5.66,14.45a4.45,4.45,0,0,0,4.21,2.8h0A4.86,4.86,0,0,0,73.53,82l1.33-.52a4.58,4.58,0,0,0,2.72-5.87L71.92,61.11a2.71,2.71,0,0,0-.2-.42,1.14,1.14,0,0,0-1.43-.54l-.15.06-2-5.13a15.76,15.76,0,0,0,0-25.37V1.6A1.6,1.6,0,0,0,66.49,0H17.25l-.08,0-.07,0L17,.09,17,.12l-.07,0-.07,0-.07,0-.06,0a.18.18,0,0,0-.07,0l-.06,0-.08.07,0,0L.48,16.14h0a.73.73,0,0,0-.08.09l0,0a1.13,1.13,0,0,0-.1.13l0,.06a.43.43,0,0,1,0,.07l0,.07a.43.43,0,0,1,0,.07.14.14,0,0,1,0,.07l0,.08a.13.13,0,0,0,0,.06L0,17a.77.77,0,0,0,0,.15v0a.49.49,0,0,0,0,.12H0v49.1A1.6,1.6,0,0,0,1.6,68Zm47.33-3.2H3.2V18.88H18.39V43.6l4.22-2.93,3.24,2.93L29,40.55,34,43.6V18.88h15V30.22a15.75,15.75,0,0,0,0,24.44ZM67.27,52.86c-.31.25-.63.48-1,.7s-.65.42-1,.61l-.17.09a14.34,14.34,0,0,1-1.43.67,15,15,0,0,1-1.69.53,13.15,13.15,0,0,1-2.32.36q-.37,0-.75,0h-.13a13.43,13.43,0,0,1-6.7-1.77,13.16,13.16,0,0,1-3.2-2.56,13.46,13.46,0,0,1,3.2-20.74,14.92,14.92,0,0,1,1.8-.86,13.53,13.53,0,0,1,11,.51,13.25,13.25,0,0,1,3.2,2.26,13.47,13.47,0,0,1-.82,20.17ZM68,61.07l-3.3,1.29v0l-1.85-4.72c.56-.16,1.13-.34,1.68-.55a16.85,16.85,0,0,0,1.61-.74L68,61ZM74,79.3l-1.33.52a2.73,2.73,0,0,1-.93.17h0a2.17,2.17,0,0,1-2.08-1.34L64.33,65l.17,0,5.42-2.12.17-.09,5.36,13.7A2.29,2.29,0,0,1,74,79.3ZM52.13,62.56v-5.9A15.61,15.61,0,0,0,56.77,58Zm6.69-35.85a15.67,15.67,0,0,0-5.73,1.08q-.48.2-1,.42V17.94L64.89,5V27.91A15.8,15.8,0,0,0,58.82,26.71Zm-9-11h-14L48.12,3.2H62.19ZM18.21,3.2H32.4L19.73,15.68H5.52Z"/><path class="cls-1" d="M22,51.85H5.14a.58.58,0,0,0-.57.57v9.67a.58.58,0,0,0,.57.57H22a.58.58,0,0,0,.57-.57V52.42A.58.58,0,0,0,22,51.85Zm-.58,9.66H5.71V53h15.7Z"/><rect class="cls-1" x="6.67" y="54" width="0.9" height="6.59"/><rect class="cls-1" x="19.61" y="54" width="0.76" height="6.59"/><rect class="cls-1" x="8.21" y="54" width="0.9" height="6.59"/><rect class="cls-1" x="11.64" y="54" width="0.9" height="6.59"/><rect class="cls-1" x="14.82" y="54" width="0.76" height="6.59"/><rect class="cls-1" x="16.12" y="54" width="0.76" height="6.59"/><rect class="cls-1" x="13.13" y="54" width="1.26" height="6.59"/><rect class="cls-1" x="9.57" y="54" width="1.45" height="6.59"/><rect class="cls-1" x="17.51" y="54" width="1.45" height="6.59"/><path class="cls-1" d="M64.89,33.6a10.66,10.66,0,0,0-6.07-1.87,10.47,10.47,0,0,0-3.9.74,10.7,10.7,0,0,0-2.79,1.61,7.16,7.16,0,0,0-.77.69,8.51,8.51,0,0,0-.71.76,10.72,10.72,0,0,0-1.79,10.8l.07.16a10.61,10.61,0,0,0,9.72,6.63h.18a8.88,8.88,0,0,0,1,0A11.19,11.19,0,0,0,61,52.89a10.07,10.07,0,0,0,1.33-.37l.37-.14a10.29,10.29,0,0,0,1.6-.78c.22-.13.43-.27.64-.41l.33-.24c.32-.25.63-.51.92-.78s.6-.62.88-1a10.47,10.47,0,0,0,1-1.46c.19-.34.37-.69.53-1a10.62,10.62,0,0,0,.16-8.19,11.92,11.92,0,0,0-.69-1.44A10.59,10.59,0,0,0,64.89,33.6Zm0,3a8.45,8.45,0,0,1,1.76,2.77,8.41,8.41,0,0,1-1.76,8.89l-.28.28a8.34,8.34,0,0,1-2.72,1.72l-.37.14a8.3,8.3,0,0,1-2.69.45h-.11a8.33,8.33,0,0,1-6.59-3.31,8.57,8.57,0,0,1-1.14-2A8.39,8.39,0,0,1,55.76,34.6,8.24,8.24,0,0,1,58.82,34,8.38,8.38,0,0,1,64.89,36.59Z"/></g></g></svg>