<svg xmlns="http://www.w3.org/2000/svg" viewBox="0 0 76.96 73.12"><defs><style>.cls-1{fill:#050505;}</style></defs><title>Asset 3</title><g id="Layer_2" data-name="Layer 2"><g id="Layer_1-2" data-name="Layer 1"><path class="cls-1" d="M1.6,68H46.24A18.1,18.1,0,1,0,68.09,39.45V1.6A1.6,1.6,0,0,0,66.49,0H17.25l-.07,0-.08,0L17,.09,17,.12l-.07,0-.07,0-.07,0-.07.05-.06,0-.06,0-.07.06,0,0L.48,16.14h0l-.07.08,0,0-.09.12-.06.09,0,.05a.3.3,0,0,1,0,.08l0,.06s0,.05,0,.08l0,.07s0,.05,0,.08,0,.05,0,.07a.78.78,0,0,0,0,.16v0a.53.53,0,0,0,0,.13H0v49.1A1.6,1.6,0,0,0,1.6,68Zm1.6-3.2V18.88H18.39V43.6l4.22-2.93,3.24,2.93L29,40.55,34,43.6V18.88h15v21a18.06,18.06,0,0,0-5.31,24.89Zm48,3h0A15.14,15.14,0,0,1,49,66.14a15.65,15.65,0,0,1-1.34-1.36,14.86,14.86,0,0,1,1.32-20.87,15.36,15.36,0,0,1,3.2-2.19,14.91,14.91,0,1,1-.89,26.1Zm7.62-30.91a18.12,18.12,0,0,0-6.73,1.3V17.94L64.89,5V38A18,18,0,0,0,58.86,36.91Zm-9-21.23h-14L48.12,3.2H62.19ZM18.21,3.2H32.4L19.73,15.68H5.52Z"/><path class="cls-1" d="M22,51.85H5.14a.58.58,0,0,0-.57.57v9.67a.58.58,0,0,0,.57.57H22a.58.58,0,0,0,.57-.57V52.42A.58.58,0,0,0,22,51.85Zm-.58,9.66H5.71V53h15.7Z"/><rect class="cls-1" x="6.67" y="54" width="0.9" height="6.59"/><rect class="cls-1" x="19.61" y="54" width="0.76" height="6.59"/><rect class="cls-1" x="8.21" y="54" width="0.9" height="6.59"/><rect class="cls-1" x="11.64" y="54" width="0.9" height="6.59"/><rect class="cls-1" x="14.82" y="54" width="0.76" height="6.59"/><rect class="cls-1" x="16.12" y="54" width="0.76" height="6.59"/><rect class="cls-1" x="13.13" y="54" width="1.26" height="6.59"/><rect class="cls-1" x="9.57" y="54" width="1.45" height="6.59"/><rect class="cls-1" x="17.51" y="54" width="1.45" height="6.59"/><path class="cls-1" d="M65.75,53.67a1.47,1.47,0,0,0-.36,0H59.6l-3.45-4.08L53,45.82a1.68,1.68,0,0,0-.87-.52,1.6,1.6,0,0,0-1.58,2.59l1.58,1.87,5.5,6.5a1.65,1.65,0,0,0,.51.4,1.58,1.58,0,0,0,.71.17h6.54a1.6,1.6,0,0,0,.36-3.16Z"/></g></g></svg>