<svg xmlns="http://www.w3.org/2000/svg" viewBox="0 0 83.72 72.58"><defs><style>.cls-1{fill:#050505;}</style></defs><title>Asset 13</title><g id="Layer_2" data-name="Layer 2"><g id="Layer_1-2" data-name="Layer 1"><path class="cls-1" d="M73.81,30.29V24.72a1,1,0,0,0,0-.17,25.57,25.57,0,0,0-10-17.4A35.5,35.5,0,0,0,41.87,0C33.44,0,26.3,2.32,20.63,6.9A31.82,31.82,0,0,0,10,24.34a1.58,1.58,0,0,0,0,.38v5.57C4.34,30.83,0,34.59,0,39.13V44c0,4.61,4.46,8.41,10.15,8.86A12.76,12.76,0,0,0,15,61.3v8.25a1.61,1.61,0,0,0,3.21,0h0V63.12a12.71,12.71,0,0,0,4.6.86H25a22.74,22.74,0,0,0,6.43,5.66,21.34,21.34,0,0,0,21.41.12A23.44,23.44,0,0,0,64.47,49.33V36.5h0s0-.07,0-.11v-.05s0-.07,0-.1a.13.13,0,0,0,0-.06.19.19,0,0,0,0-.08.64.64,0,0,0,0-.07.25.25,0,0,1,0-.07l0-.08,0,0,0-.09,0,0a.56.56,0,0,1,0-.08l0-.05-.05-.07L64,35.42,64,35.37l-.07-.07s0,0,0,0l-.08,0,0,0-.07,0-.06,0-.07,0-.07,0-.06,0-.1,0h0l-.1,0h0A32.15,32.15,0,0,1,57,32.81c-6.3-2.71-13.71-6.92-13.81-7A1.59,1.59,0,0,0,41.4,26a47.69,47.69,0,0,1-13.34,7,42.43,42.43,0,0,1-6,1.61,1.55,1.55,0,0,0-.81.37A1.59,1.59,0,0,0,20,36.5V49.33A24,24,0,0,0,22.9,60.77h-.09a9.5,9.5,0,0,1-4.6-1.18V32.29c0-12,10.76-21.76,24-21.76s24,9.76,24,21.76V69.84h0a1.6,1.6,0,0,0,3.2,0V32.29c0-13.76-12.2-25-27.2-25S15,18.53,15,32.29V56.73a9.55,9.55,0,0,1-1.76-5.52,1.57,1.57,0,0,0-.15-.68V33.35a1.53,1.53,0,0,0,0-.3h0V24.91A28.61,28.61,0,0,1,22.65,9.39C27.73,5.28,34.19,3.2,41.87,3.2a32.28,32.28,0,0,1,20,6.47A22.43,22.43,0,0,1,70.61,24.8v7.94h0a1.23,1.23,0,0,0,0,.2V51.3a1.59,1.59,0,0,0,1.57,1.6h.22c6.23,0,11.3-4,11.3-8.91V39.13C83.72,34.59,79.39,30.84,73.81,30.29Zm-50.59,19V37.62a45.21,45.21,0,0,0,5.28-1.41,51.46,51.46,0,0,0,7.84-3.29,46.66,46.66,0,0,0,6.15-3.8c1.35.75,4,2.21,7,3.73,2.53,1.27,5.33,2.59,7.89,3.61a38.06,38.06,0,0,0,3.83,1.31V49.33c0,11.05-8.53,20-19,20a18.42,18.42,0,0,1-13-5.4H31.7a4,4,0,0,0,3.49,2.08h4.54a4,4,0,0,0,0-7.92H35.19a4,4,0,0,0-3.73,2.63H26.63A20.65,20.65,0,0,1,23.22,49.33ZM80.51,44c0,2.81-2.89,5.15-6.68,5.62V33.51c3.79.47,6.68,2.81,6.68,5.62ZM3.2,39.13c0-2.81,2.89-5.15,6.69-5.62V49.62C6.09,49.15,3.2,46.81,3.2,44Z"/></g></g></svg>