<svg xmlns="http://www.w3.org/2000/svg" viewBox="0 0 62.97 93.14"><defs><style>.cls-1{fill:#050505;}</style></defs><title>Asset 6</title><g id="Layer_2" data-name="Layer 2"><g id="Layer_1-2" data-name="Layer 1"><path class="cls-1" d="M13,51.91a1.15,1.15,0,0,0-1.15,1.14V78H1.6A1.6,1.6,0,0,0,0,79.57v12a1.6,1.6,0,0,0,1.6,1.6h8a1.6,1.6,0,0,0,1.6-1.6V89.35H51.78v2.19a1.6,1.6,0,0,0,1.6,1.6h8a1.6,1.6,0,0,0,1.6-1.6v-12a1.59,1.59,0,0,0-1.6-1.6H50.53V53.05a1.14,1.14,0,0,0-1.15-1.14H37.67V38.1a19.56,19.56,0,1,0-12.55-.05V51.91ZM48.24,78v.45H14.12V54.19H26.39V67.87l1.93-1.26.48-.31,2.62,1.57,2.69-1.57.36.24,2,1.33V54.19H48.24Zm11.53,3.2v5H53.38a1.27,1.27,0,0,0-.28,0H9.88a1.33,1.33,0,0,0-.28,0H3.2v-5Zm-28.3-78a16.35,16.35,0,0,1,6.2,31.49,15.73,15.73,0,0,1-3.2.94,16.58,16.58,0,0,1-3,.28,16.36,16.36,0,0,1,0-32.71ZM28.32,38.86a19.31,19.31,0,0,0,3.15.26,19.8,19.8,0,0,0,3-.23v13H28.32Z"/><path class="cls-1" d="M25.17,32.1a14,14,0,0,0,12.47.07,14,14,0,1,0-12.47-.07Zm6.3-24.3a11.75,11.75,0,0,1,3.18,23.07,11.71,11.71,0,0,1-6.36,0A11.75,11.75,0,0,1,31.47,7.8Z"/><path class="cls-1" d="M31.47,21.86a2.31,2.31,0,0,0,1.28-4.22l-1.2-6.7-1.19,6.6a2.3,2.3,0,0,0,1.11,4.32Z"/><path class="cls-1" d="M27.92,69.51H16.52a.35.35,0,0,0-.35.34v6.54a.35.35,0,0,0,.35.34h11.4a.35.35,0,0,0,.32-.22.5.5,0,0,0,0-.12V69.85A.34.34,0,0,0,27.92,69.51ZM16.86,76.05V70.19H27.57v5.86H16.86Z"/><rect class="cls-1" x="17.55" y="70.92" width="0.61" height="4.46"/><rect class="cls-1" x="26.31" y="70.92" width="0.51" height="4.46"/><rect class="cls-1" x="18.59" y="70.92" width="0.61" height="4.46"/><rect class="cls-1" x="20.91" y="70.92" width="0.61" height="4.46"/><rect class="cls-1" x="23.06" y="70.92" width="0.51" height="4.46"/><rect class="cls-1" x="23.94" y="70.92" width="0.51" height="4.46"/><rect class="cls-1" x="21.92" y="70.92" width="0.85" height="4.46"/><rect class="cls-1" x="19.51" y="70.92" width="0.98" height="4.46"/><polygon class="cls-1" points="24.88 70.92 24.88 75.38 25.19 75.38 25.87 75.38 25.87 70.92 25.12 70.92 24.88 70.92"/></g></g></svg>