<svg xmlns="http://www.w3.org/2000/svg" viewBox="0 0 61.23 84.57"><defs><style>.cls-1{fill:#050505;}</style></defs><title>Asset 11</title><g id="Layer_2" data-name="Layer 2"><g id="Layer_1-2" data-name="Layer 1"><path class="cls-1" d="M11.11,10.06H4.47A4.47,4.47,0,0,0,0,14.52V80.1a4.47,4.47,0,0,0,4.47,4.47H56.76a4.48,4.48,0,0,0,4.47-4.47V14.52a4.47,4.47,0,0,0-4.47-4.46H50.12a4.52,4.52,0,0,0-4.39-4.42h-4.3A6.83,6.83,0,0,0,34.71,0H27.49a6.83,6.83,0,0,0-6.72,5.64H15.49A4.52,4.52,0,0,0,11.11,10.06ZM49.92,16.9h3.24V74.82H8V16.9H11.3a4.45,4.45,0,0,0,4.19,3.25H45.73A4.45,4.45,0,0,0,49.92,16.9ZM58,14.52V80.1a1.26,1.26,0,0,1-1.26,1.27H4.47A1.27,1.27,0,0,1,3.2,80.1V14.52a1.27,1.27,0,0,1,1.27-1.26h6.62v.44H6.38a1.6,1.6,0,0,0-1.6,1.6V76.42A1.6,1.6,0,0,0,6.38,78H54.76a1.6,1.6,0,0,0,1.6-1.6V15.3a1.6,1.6,0,0,0-1.6-1.6H50.13v-.44h6.63A1.26,1.26,0,0,1,58,14.52ZM14.3,10.31a1.35,1.35,0,0,1,1.19-1.47h6.78a1.6,1.6,0,0,0,1.6-1.6V6.82A3.63,3.63,0,0,1,27.49,3.2h7.22a3.63,3.63,0,0,1,3.62,3.62v.42h0a1.6,1.6,0,0,0,1.6,1.6h5.8a1.36,1.36,0,0,1,1.2,1.47v1.34h0v3.82A1.36,1.36,0,0,1,45.73,17H15.49a1.35,1.35,0,0,1-1.19-1.47V10.31Z"/><path class="cls-1" d="M30.3,12.87a4.68,4.68,0,1,0-4.68-4.68A4.69,4.69,0,0,0,30.3,12.87Zm0-6.16a1.48,1.48,0,1,1-1.48,1.48A1.49,1.49,0,0,1,30.3,6.71Z"/><path class="cls-1" d="M10.58,28.94a1.6,1.6,0,0,0,1.6,1.6H48.31a1.6,1.6,0,0,0,0-3.2H12.18A1.6,1.6,0,0,0,10.58,28.94Z"/><path class="cls-1" d="M33.83,38.45H12.18a1.6,1.6,0,1,0,0,3.2H33.83a1.6,1.6,0,1,0,0-3.2Z"/><path class="cls-1" d="M33.83,50.62H12.18a1.61,1.61,0,0,0,0,3.21H33.83a1.61,1.61,0,1,0,0-3.21Z"/><path class="cls-1" d="M33.83,62.8H12.18a1.6,1.6,0,0,0,0,3.2H33.83a1.6,1.6,0,1,0,0-3.2Z"/><path class="cls-1" d="M45.79,34.87l-4.06,4.25L40.61,37.6A1.6,1.6,0,0,0,38,39.5l2.25,3a1.6,1.6,0,0,0,1.19.65h.1a1.65,1.65,0,0,0,1.16-.49l5.38-5.62a1.61,1.61,0,0,0-2.32-2.22Z"/><path class="cls-1" d="M45.79,47.59l-4.06,4.24-1.12-1.52A1.6,1.6,0,0,0,38,52.21l2.25,3a1.6,1.6,0,0,0,1.19.65h.1a1.61,1.61,0,0,0,1.16-.49l5.38-5.62a1.6,1.6,0,0,0-2.32-2.21Z"/><path class="cls-1" d="M45.79,60.3l-4.06,4.24L40.61,63a1.59,1.59,0,0,0-2.24-.34A1.61,1.61,0,0,0,38,64.93l2.25,3a1.63,1.63,0,0,0,1.19.65h.1a1.62,1.62,0,0,0,1.16-.5l5.38-5.62a1.6,1.6,0,0,0-2.32-2.21Z"/></g></g></svg>