<svg xmlns="http://www.w3.org/2000/svg" viewBox="0 0 100.83 51.9"><defs><style>.cls-1{fill:#050505;}</style></defs><title>Asset 9</title><g id="Layer_2" data-name="Layer 2"><g id="Layer_1-2" data-name="Layer 1"><path class="cls-1" d="M99.68,46.79a1.14,1.14,0,0,0-1.14,1.14,1.57,1.57,0,1,1-3.14,0,1.14,1.14,0,0,0-1.14-1.14H94.2a1.14,1.14,0,0,0-1.14,1.14,1.63,1.63,0,0,1-1.57,1.68,1.61,1.61,0,0,1-1.55-1.41l5.71-16.06L97,28.65a1.6,1.6,0,0,0-1.49-2.18H80.62a1.59,1.59,0,0,0-1.06.4l-.19.17V22.42a1.16,1.16,0,0,0-1.15-1.15h-.79v-7a1.14,1.14,0,0,0-1.14-1.15H66.15A1.14,1.14,0,0,0,65,14.27v7h-.83v-7A1.14,1.14,0,0,0,63,13.12H52.9a1.15,1.15,0,0,0-1.15,1.15v7h-4a1.16,1.16,0,0,0-1.15,1.15V28.6H40.72L37.26,15.39a1.6,1.6,0,0,0-1.55-1.19H30.84V1.6A1.61,1.61,0,0,0,29.23,0H18.79a1.6,1.6,0,0,0-1.6,1.6V14.2h-6A1.59,1.59,0,0,0,9.7,15.39L6.22,28.67H2.62a1.61,1.61,0,0,0-1.19.53A1.65,1.65,0,0,0,1,30.45a86,86,0,0,0,1.63,9.32,34.38,34.38,0,0,0,2.78,8,.45.45,0,0,0,0,.11,1.63,1.63,0,0,1-1.57,1.68,1.62,1.62,0,0,1-1.57-1.68,1.15,1.15,0,0,0-2.29,0,3.92,3.92,0,0,0,3.86,4A3.78,3.78,0,0,0,6.6,50.72a3.77,3.77,0,0,0,5.48,0,3.77,3.77,0,0,0,5.48,0,3.77,3.77,0,0,0,5.48,0,3.77,3.77,0,0,0,5.48,0,3.77,3.77,0,0,0,5.48,0,3.77,3.77,0,0,0,5.48,0,3.77,3.77,0,0,0,5.48,0,3.77,3.77,0,0,0,5.45,0,3.77,3.77,0,0,0,5.45,0,3.77,3.77,0,0,0,5.48,0,3.77,3.77,0,0,0,5.48,0,3.78,3.78,0,0,0,5.49,0,3.77,3.77,0,0,0,5.48,0,3.77,3.77,0,0,0,5.48,0A3.76,3.76,0,0,0,88.4,51a1.59,1.59,0,0,0,.41-.26,3.77,3.77,0,0,0,5.42-.06A3.78,3.78,0,0,0,97,51.9a3.92,3.92,0,0,0,3.86-4A1.15,1.15,0,0,0,99.68,46.79ZM27.63,5.22H20.39v-2h7.24Zm-7.24,9V8.43h7.24V14.2H20.39Zm-1.77,3.2H34.48l2.93,11.2,0,.06H9.53l3-11.26ZM9.51,31.86h30a1.54,1.54,0,0,0,.43-.06H78.19a1.59,1.59,0,0,0,1.06-.4l2-1.73h12L92.65,31v0l-1.13,3.18H4.81c-.15-.9-.27-1.7-.36-2.36ZM48.9,28.6v-5h7.85v5.65H48.9ZM54,15.41h7.85v5.64H54Zm13.25,0h7.85v5.64H67.29Zm9.79,13.8H69.23V23.56h7.85v5.65ZM66.89,23.56v5.65H59V23.56ZM86,49.61a1,1,0,0,1-.25,0,1.64,1.64,0,0,1-1.32-1.66,1.14,1.14,0,0,0-1.15-1.14h-.05a1.14,1.14,0,0,0-1.14,1.14,1.57,1.57,0,1,1-3.14,0,1.14,1.14,0,0,0-1.15-1.14h0a1.14,1.14,0,0,0-1.14,1.14,1.57,1.57,0,1,1-3.14,0,1.15,1.15,0,0,0-1.15-1.14h0a1.15,1.15,0,0,0-1.15,1.14,1.57,1.57,0,1,1-3.13,0,1.15,1.15,0,0,0-1.15-1.14h0a1.15,1.15,0,0,0-1.15,1.14,1.57,1.57,0,1,1-3.13,0,1.15,1.15,0,0,0-1.15-1.14h0a1.15,1.15,0,0,0-1.15,1.14,1.57,1.57,0,1,1-3.14,0,1.14,1.14,0,0,0-1.14-1.14h0a1.14,1.14,0,0,0-1.15,1.14,1.57,1.57,0,1,1-3.13,0v0a1.14,1.14,0,0,0-1.14-1.14h0a1.14,1.14,0,0,0-1.14,1.14v0a1.57,1.57,0,1,1-3.14,0A1.14,1.14,0,0,0,45,46.79h-.06a1.14,1.14,0,0,0-1.14,1.14,1.57,1.57,0,1,1-3.14,0,1.14,1.14,0,0,0-1.14-1.14h-.06a1.14,1.14,0,0,0-1.14,1.14,1.57,1.57,0,1,1-3.14,0A1.14,1.14,0,0,0,34,46.79H34a1.14,1.14,0,0,0-1.14,1.14,1.57,1.57,0,1,1-3.14,0,1.14,1.14,0,0,0-1.14-1.14h-.06a1.14,1.14,0,0,0-1.14,1.14,1.57,1.57,0,1,1-3.14,0,1.14,1.14,0,0,0-1.14-1.14H23a1.14,1.14,0,0,0-1.14,1.14,1.57,1.57,0,1,1-3.14,0,1.14,1.14,0,0,0-1.14-1.14h-.06a1.14,1.14,0,0,0-1.14,1.14,1.57,1.57,0,1,1-3.14,0,1.14,1.14,0,0,0-1.14-1.14h-.06a1.14,1.14,0,0,0-1.14,1.14,1.79,1.79,0,0,1-.29,1,1.65,1.65,0,0,0-.36-.22c-1.52-.66-3.2-4.26-4.47-9.64-.25-1-.46-2-.64-3H90.86L86.24,49a1.76,1.76,0,0,0-.09.55v0Z"/></g></g></svg>